<svg width="847" height="683" viewBox="0 0 847 683" fill="none" xmlns="http://www.w3.org/2000/svg">
<g id="scena">
<g id="podloga">
<path id="Vector" d="M846.578 680.583H33.5778V682.583H846.578V680.583Z" fill="#3F3D56"/>
</g>
<g id="drzewa">
<path id="Vector_2" d="M241.167 459.195C294.849 459.195 338.368 415.677 338.368 361.995C338.368 308.312 294.849 264.794 241.167 264.794C187.485 264.794 143.967 308.312 143.967 361.995C143.967 415.677 187.485 459.195 241.167 459.195Z" fill="#E6E6E6"/>
<path id="Vector_3" d="M214.906 503.933L238.815 518.749V418.598L212.015 401.99C209.8 400.617 208.181 398.462 207.479 395.952V395.952C210.039 395.463 212.69 395.953 214.906 397.326L238.816 412.142V373.307C238.816 365.794 239.737 358.309 241.559 351.02C243.381 358.309 244.303 365.794 244.303 373.307V436.694L279.577 414.836C282.393 413.09 285.652 412.191 288.965 412.246C287.539 415.237 285.283 417.755 282.467 419.5L244.303 443.149V682H238.815V525.205L212.015 508.597C209.8 507.224 208.181 505.069 207.479 502.559V502.559C210.039 502.07 212.69 502.56 214.906 503.933V503.933Z" fill="#CCCCCC"/>
<path id="Vector_4" d="M97.2004 467.448C150.883 467.448 194.401 423.93 194.401 370.247C194.401 316.565 150.883 273.047 97.2004 273.047C43.5181 273.047 0 316.565 0 370.247C0 423.93 43.5181 467.448 97.2004 467.448Z" fill="#E6E6E6"/>
<path id="Vector_5" d="M123.462 512.186L99.552 527.002V426.85L126.352 410.243C128.568 408.87 130.187 406.715 130.889 404.205C128.328 403.715 125.678 404.206 123.462 405.579L99.552 420.395V381.559C99.552 374.046 98.6306 366.562 96.8084 359.273C94.9863 366.562 94.0648 374.046 94.0649 381.559V444.947L58.791 423.089C55.9744 421.343 52.7156 420.444 49.4025 420.499C50.8285 423.49 53.0842 426.008 55.9008 427.753L94.0649 451.402V680.523H99.552V533.457L126.352 516.85C128.568 515.477 130.187 513.322 130.889 510.812C128.328 510.322 125.678 510.813 123.462 512.186Z" fill="#CCCCCC"/>
<path id="Vector_6" d="M167.808 334.709C260.236 334.709 335.163 259.782 335.163 167.355C335.163 74.9272 260.236 0 167.808 0C75.3809 0 0.453735 74.9272 0.453735 167.355C0.453735 259.782 75.3809 334.709 167.808 334.709Z" fill="#E6E6E6"/>
<path id="Vector_7" d="M213.024 411.737L171.857 437.247V264.811L218 236.217C221.815 233.853 224.603 230.143 225.811 225.82L225.811 225.82H225.811C221.403 224.978 216.839 225.823 213.024 228.187L171.857 253.696V186.831C171.857 173.895 170.271 161.009 167.134 148.46C163.996 161.009 162.41 173.895 162.41 186.831V295.968L101.677 258.334C96.8276 255.329 91.2166 253.781 85.5123 253.874C87.9677 259.024 91.8513 263.359 96.7007 266.364L162.41 307.082V680.89H171.857V448.361L218 419.767C221.815 417.403 224.603 413.693 225.811 409.37L225.811 409.37H225.811C221.403 408.528 216.839 409.373 213.024 411.737V411.737Z" fill="#CCCCCC"/>
</g>
<g id="telefon">
<path id="Vector_8" d="M642.924 160.995H640.654V47.0346C640.654 36.6938 636.546 26.7766 629.234 19.4646C621.922 12.1527 612.005 8.04483 601.664 8.04483H347.874C337.533 8.04483 327.616 12.1527 320.304 19.4646C312.992 26.7766 308.884 36.6938 308.884 47.0346V96.9648H308.024C307.417 96.9648 306.834 97.206 306.405 97.6355C305.975 98.065 305.734 98.6474 305.734 99.2547V121.585C305.734 122.192 305.975 122.775 306.405 123.204C306.834 123.634 307.417 123.875 308.024 123.875H308.884V146.225H307.824C307.523 146.225 307.225 146.284 306.948 146.399C306.67 146.514 306.417 146.683 306.205 146.896C305.992 147.108 305.823 147.361 305.708 147.639C305.593 147.916 305.534 148.214 305.534 148.515V190.775C305.534 191.382 305.775 191.964 306.205 192.394C306.634 192.823 307.217 193.065 307.824 193.065H308.884V209.455H307.924C307.623 209.455 307.325 209.514 307.048 209.629C306.77 209.744 306.517 209.913 306.305 210.125C306.092 210.338 305.923 210.59 305.808 210.868C305.693 211.146 305.634 211.444 305.634 211.744V254.405C305.634 255.012 305.875 255.595 306.305 256.024C306.734 256.453 307.317 256.695 307.924 256.695H308.884V643.325C308.884 653.665 312.992 663.583 320.304 670.895C327.616 678.207 337.533 682.315 347.874 682.315H601.664C612.005 682.315 621.922 678.207 629.234 670.895C636.546 663.583 640.654 653.665 640.654 643.325V242.725H642.924C643.531 242.725 644.114 242.484 644.543 242.054C644.973 241.625 645.214 241.042 645.214 240.435V163.285C645.214 162.677 644.973 162.095 644.543 161.665C644.114 161.236 643.531 160.995 642.924 160.995Z" fill="#3F3D56"/>
<path id="Vector_9" d="M485.224 38.0844H446.634C445.475 38.0832 444.365 37.6226 443.545 36.8035C442.726 35.9844 442.265 34.8738 442.264 33.7153V32.0444C442.265 30.8859 442.726 29.7753 443.545 28.9562C444.365 28.1371 445.475 27.6764 446.634 27.6752H485.224C486.382 27.6764 487.493 28.1371 488.312 28.9562C489.131 29.7753 489.592 30.8859 489.594 32.0444V33.7153C489.592 34.8738 489.132 35.9844 488.312 36.8035C487.493 37.6226 486.382 38.0832 485.224 38.0844V38.0844Z" fill="white"/>
<path id="Vector_10" d="M501.434 38.2249C504.383 38.2249 506.774 35.834 506.774 32.8848C506.774 29.9356 504.383 27.5448 501.434 27.5448C498.485 27.5448 496.094 29.9356 496.094 32.8848C496.094 35.834 498.485 38.2249 501.434 38.2249Z" fill="white"/>
<path id="Vector_11" d="M593.814 25.6049H555.814V30.1749C555.814 35.93 553.528 41.4495 549.458 45.5191C545.389 49.5886 539.869 51.8748 534.114 51.8748H413.054C410.206 51.8762 407.385 51.3164 404.753 50.2276C402.121 49.1388 399.729 47.5422 397.714 45.5291C395.699 43.5159 394.1 41.1255 393.009 38.4945C391.918 35.8634 391.355 33.0432 391.354 30.1949V25.6049H355.724C348.735 25.6049 342.033 28.381 337.092 33.3226C332.15 38.2642 329.374 44.9664 329.374 51.9548V51.9548V638.395C329.374 645.383 332.15 652.086 337.092 657.027C342.033 661.969 348.735 664.745 355.724 664.745H593.814C600.8 664.745 607.499 661.97 612.439 657.03C617.379 652.09 620.154 645.391 620.154 638.405V51.9548C620.155 48.4958 619.475 45.0704 618.153 41.8742C616.83 38.678 614.891 35.7736 612.446 33.3267C610.001 30.8799 607.098 28.9386 603.903 27.6137C600.708 26.2888 597.283 25.6062 593.824 25.6049H593.814Z" fill="white"/>
<path id="Vector_12" d="M525.764 593.584H423.764C416.47 593.584 409.476 590.686 404.318 585.529C399.161 580.372 396.264 573.377 396.264 566.084C396.264 558.79 399.161 551.795 404.318 546.638C409.476 541.481 416.47 538.584 423.764 538.584H525.764C533.058 538.584 540.053 541.481 545.21 546.638C550.367 551.795 553.264 558.79 553.264 566.084C553.264 573.377 550.367 580.372 545.21 585.529C540.053 590.686 533.058 593.584 525.764 593.584V593.584Z" fill="#6C63FF"/>
<path id="Vector_13" d="M565.764 367.695H383.764C381.244 367.695 378.828 366.694 377.046 364.912C375.265 363.131 374.264 360.714 374.264 358.195C374.264 355.675 375.265 353.259 377.046 351.477C378.828 349.696 381.244 348.695 383.764 348.695H565.764C568.284 348.695 570.7 349.696 572.482 351.477C574.264 353.259 575.264 355.675 575.264 358.195C575.264 360.714 574.264 363.131 572.482 364.912C570.7 366.694 568.284 367.695 565.764 367.695V367.695Z" fill="#E6E6E6"/>
<path id="Vector_14" d="M565.764 395.695H383.764C381.244 395.695 378.828 394.694 377.046 392.912C375.265 391.131 374.264 388.714 374.264 386.195C374.264 383.675 375.265 381.259 377.046 379.477C378.828 377.696 381.244 376.695 383.764 376.695H565.764C568.284 376.695 570.7 377.696 572.482 379.477C574.264 381.259 575.264 383.675 575.264 386.195C575.264 388.714 574.264 391.131 572.482 392.912C570.7 394.694 568.284 395.695 565.764 395.695V395.695Z" fill="#E6E6E6"/>
<path id="Vector_15" d="M565.764 423.695H383.764C381.244 423.695 378.828 422.694 377.046 420.912C375.265 419.131 374.264 416.714 374.264 414.195C374.264 411.675 375.265 409.259 377.046 407.477C378.828 405.696 381.244 404.695 383.764 404.695H565.764C568.284 404.695 570.7 405.696 572.482 407.477C574.264 409.259 575.264 411.675 575.264 414.195C575.264 416.714 574.264 419.131 572.482 420.912C570.7 422.694 568.284 423.695 565.764 423.695V423.695Z" fill="#E6E6E6"/>
<path id="Vector_16" d="M565.764 451.695H383.764C381.244 451.695 378.828 450.694 377.046 448.912C375.265 447.131 374.264 444.714 374.264 442.195C374.264 439.675 375.265 437.259 377.046 435.477C378.828 433.696 381.244 432.695 383.764 432.695H565.764C568.284 432.695 570.7 433.696 572.482 435.477C574.264 437.259 575.264 439.675 575.264 442.195C575.264 444.714 574.264 447.131 572.482 448.912C570.7 450.694 568.284 451.695 565.764 451.695V451.695Z" fill="#E6E6E6"/>
<path id="Vector_17" d="M441.764 479.695H383.764C381.244 479.695 378.828 478.694 377.046 476.912C375.265 475.131 374.264 472.714 374.264 470.195C374.264 467.675 375.265 465.259 377.046 463.477C378.828 461.696 381.244 460.695 383.764 460.695H441.764C444.284 460.695 446.7 461.696 448.482 463.477C450.263 465.259 451.264 467.675 451.264 470.195C451.264 472.714 450.263 475.131 448.482 476.912C446.7 478.694 444.284 479.695 441.764 479.695H441.764Z" fill="#E6E6E6"/>
<path id="Vector_18" d="M594.25 289.844H355.278C353.166 289.841 351.14 289.001 349.646 287.507C348.153 286.014 347.312 283.988 347.31 281.876V104.514C347.312 102.401 348.153 100.376 349.646 98.8824C351.14 97.3887 353.166 96.5485 355.278 96.5461H594.25C596.362 96.5485 598.388 97.3887 599.881 98.8824C601.375 100.376 602.215 102.401 602.218 104.514V281.876C602.215 283.988 601.375 286.013 599.881 287.507C598.388 289.001 596.362 289.841 594.25 289.844V289.844Z" fill="#E6E6E6"/>
</g>
<g id="postac">
<path id="Vector_19" opacity="0.1" d="M636.578 239.215C636.578 237.842 636.578 236.462 636.578 235.075C636.523 236.144 636.523 237.216 636.578 238.285C636.568 238.595 636.578 238.905 636.578 239.215Z" fill="black"/>
<path id="Vector_20" d="M676.442 317.849C690.933 317.849 702.681 306.102 702.681 291.61C702.681 277.119 690.933 265.372 676.442 265.372C661.95 265.372 650.203 277.119 650.203 291.61C650.203 306.102 661.95 317.849 676.442 317.849Z" fill="#FFB8B8"/>
<path id="Vector_21" d="M744.685 504.376C745.709 503.439 746.515 502.288 747.046 501.005C747.577 499.722 747.82 498.338 747.759 496.951C747.697 495.564 747.332 494.207 746.69 492.977C746.047 491.746 745.143 490.671 744.04 489.827L740.462 458.047L720.537 463.486L730.238 492.09C728.944 494.036 728.409 496.39 728.735 498.705C729.06 501.02 730.223 503.135 732.004 504.65C733.785 506.164 736.059 506.973 738.396 506.922C740.733 506.872 742.971 505.966 744.685 504.376V504.376Z" fill="#FFB8B8"/>
<path id="Vector_22" d="M759.242 665.281L770.24 658.168L748.036 612.365L731.805 622.864L759.242 665.281Z" fill="#FFB8B8"/>
<path id="Vector_23" d="M798.054 654.661L763.491 677.017L754.854 663.664L776.562 649.622C778.25 648.53 780.136 647.782 782.114 647.419C784.091 647.056 786.121 647.086 788.087 647.508C790.052 647.929 791.916 648.734 793.57 649.876C795.225 651.017 796.639 652.474 797.731 654.162L798.054 654.661V654.661Z" fill="#2F2E41"/>
<path id="Vector_24" d="M661.851 669.936H674.948L681.181 619.418H661.851V669.936Z" fill="#FFB8B8"/>
<path id="Vector_25" d="M700.207 682.097H659.044V666.194H684.898C688.958 666.194 692.852 667.807 695.723 670.678C698.594 673.549 700.207 677.443 700.207 681.503V682.097V682.097Z" fill="#2F2E41"/>
<path id="Vector_26" d="M714.416 343.71C712.674 349.381 718.848 355.555 720.841 361.129C722.834 366.703 725.516 372.067 726.593 377.9C727.33 381.911 744.038 470.5 743.235 475.894C738.092 474.353 732.553 474.861 727.776 477.312C724.439 471.45 722.433 464.924 721.902 458.199C721.701 454.212 721.739 450.216 722.015 446.233C722.534 434.963 717.648 423.677 717.486 412.399C717.537 408.49 717.228 404.584 716.563 400.732C716.028 398.083 716.077 393.124 715.501 390.483C714.586 386.286 718.523 384.35 718.305 380.047L717.106 356.552C716.855 352.436 712.723 347.388 714.416 343.71Z" fill="#2F2E41"/>
<path id="Vector_27" d="M655.177 442.29C650.966 448.859 642.102 450.28 635.901 454.986C626.426 462.219 650.598 624.716 658.578 653.583C679.634 650.425 680.371 650.436 682.792 649.372C685.213 648.309 687.403 565.772 692.52 548.758C702.095 557.782 732.231 635.339 738.59 652.531C763.857 646.214 738.59 652.531 771.227 644.108C770.953 638.15 722.998 443.985 721.25 428.688C699.31 433.057 677.054 437.931 655.177 442.29Z" fill="#2F2E41"/>
<path id="Vector_28" d="M652.338 320.271C649.737 327.976 653.278 357.953 653.537 364.694C653.91 370.813 653.91 376.95 653.537 383.069C652.638 393.667 649.486 404.337 651.601 414.756C652.986 421.651 655.449 428.06 656.025 435.076C656.413 439.937 656.292 444.88 657.831 449.49C663.503 447.059 713.784 438.704 717.478 433.845C714.951 421.635 717.397 409.028 715.72 396.673C714.748 389.551 712.342 382.697 711.207 375.607C709.806 366.857 710.397 357.783 707.845 349.284C706.43 344.981 704.633 340.813 702.473 336.831C700.276 332.302 697.521 328.582 696.578 328.583C694.188 328.713 652.491 319.584 652.338 320.271Z" fill="#6C63FF"/>
<path id="Vector_29" d="M642.713 503.717C642.713 503.717 651.431 486.322 651.868 476.372C652.022 472.799 661.809 458.58 666.217 455.356C676.669 447.699 684.374 396.381 680.841 383.928C674.732 362.401 664.443 342.333 653.999 322.547C653.688 321.809 653.184 321.169 652.541 320.692C650.418 319.371 648.117 321.972 646.667 324.006C641.749 330.901 633.647 334.587 626.225 338.662C618.804 342.738 611.212 348.166 608.968 356.325C607.461 361.802 608.636 367.611 609.778 373.161C610.921 378.711 614.915 383.118 617.937 387.793C621.44 392.952 630.54 415.833 630.471 418.548C630.649 435.336 630.819 452.18 628.786 468.854C627.643 478.276 626.639 497.211 626.639 497.211L642.713 503.717Z" fill="#2F2E41"/>
<path id="Vector_30" d="M721.886 485.73C705.836 449.198 706.735 407.627 696.535 369.061C693.505 357.613 689.454 346.108 690.183 334.287C690.312 332.173 690.758 329.799 692.524 328.616C694.096 327.563 696.235 327.846 697.961 328.616C699.686 329.385 701.161 330.641 702.822 331.5C705.504 332.869 708.623 333.258 711.199 334.806C715.024 337.107 716.976 341.482 718.686 345.598C722.34 354.388 725.978 363.422 726.269 372.95C726.885 391.455 718.678 409.239 722.955 427.234C723.878 430.782 724.982 434.281 726.261 437.718C730.55 450.13 734.067 462.796 736.794 475.643C737.272 477.839 722.558 487.27 721.886 485.73Z" fill="#2F2E41"/>
<path id="Vector_31" d="M670.933 477.086C671.148 475.714 671.059 474.312 670.673 472.979C670.287 471.645 669.614 470.412 668.7 469.367C667.786 468.321 666.654 467.489 665.383 466.929C664.113 466.368 662.735 466.093 661.347 466.123L638.713 443.529L626.543 460.216L651.977 476.506C652.182 478.835 653.233 481.008 654.932 482.613C656.632 484.218 658.861 485.144 661.198 485.216C663.534 485.287 665.816 484.499 667.61 483.001C669.404 481.502 670.587 479.398 670.933 477.086V477.086Z" fill="#FFB8B8"/>
<path id="Vector_32" d="M598.816 425.775C599.189 429.17 627.704 464.972 643.199 476.656C642.3 472.046 654.445 457.008 658.374 454.659C648.555 445.396 628.038 423.911 627.36 422.737C625.14 418.451 627.36 413.33 629.296 408.899C635.397 394.809 638.273 378.824 634.36 363.973C632.885 358.399 630.309 352.816 625.618 349.389C623.568 347.899 620.797 346.878 618.52 348.012C617.567 348.561 616.739 349.303 616.09 350.191C608.822 359.031 598.541 423.255 598.816 425.775Z" fill="#2F2E41"/>
<path id="Vector_33" d="M665.258 314.57C666.79 308.07 659.046 294.084 660.578 287.583C661.615 283.181 671.966 286.174 674.382 282.35C676.798 278.527 680.844 275.43 685.366 275.379C690.564 275.32 695.679 279.176 700.603 277.51C705.582 275.825 707.173 269.007 704.972 264.234C702.771 259.461 698.029 256.419 693.344 254.036C685.367 249.978 676.078 247.014 667.54 249.699C662.378 251.322 658.063 254.839 653.886 258.279C650.08 261.415 646.209 264.622 643.547 268.774C638.334 276.909 638.648 287.87 643.104 296.444C647.559 305.017 655.677 311.309 664.622 314.961" fill="#2F2E41"/>
</g>
</g>
</svg>
